<svg width="20" height="20" viewBox="0 0 20 20" fill="none" xmlns="http://www.w3.org/2000/svg">
<rect width="20" height="20" fill="#E3E3E3"/>
<g id="&#208;&#154;&#208;&#190;&#209;&#128;&#208;&#183;&#208;&#184;&#208;&#189;&#208;&#176;-001">
<rect width="1024" height="2045" transform="translate(-955 -265)" fill="#F6F6FA"/>
<g id="Frame 277132152">
<g id="Frame 277132153">
<g id="&#208;&#152;&#209;&#130;&#208;&#190;&#208;&#179;&#208;&#190;" filter="url(#filter0_dd_7_43)">
<rect x="-259" y="-155" width="303" height="604" rx="16" fill="white" shape-rendering="crispEdges"/>
<g id="&#208;&#161;&#209;&#130;&#208;&#190;&#208;&#184;&#208;&#188;&#208;&#190;&#209;&#129;&#209;&#130;&#209;&#140; &#208;&#183;&#208;&#176;&#208;&#186;&#208;&#176;&#208;&#183;&#208;&#176;">
<g id="&#208;&#148;&#208;&#190;&#209;&#129;&#209;&#130;&#208;&#176;&#208;&#178;&#208;&#186;&#208;&#176;">
<g id="&#208;&#159;&#209;&#131;&#208;&#189;&#208;&#186;&#209;&#130;-&#208;&#186;&#209;&#131;&#209;&#128;&#209;&#140;&#208;&#181;&#209;&#128;">
<g id="Frame 3853">
<g id="icon-20">
<g id="Vector">
<path fill-rule="evenodd" clip-rule="evenodd" d="M13.1585 3.05991L16.9401 6.84154L6.72705 17.0546L2.73544 17.8529C2.38557 17.9229 2.07711 17.6144 2.14709 17.2646L2.94541 13.273L13.1585 3.05991ZM4.17707 13.9321L13.1585 4.95072L15.0493 6.84154L6.06789 15.8229L3.70436 16.2956L4.17707 13.9321Z" fill="#CB11AB"/>
<path fill-rule="evenodd" clip-rule="evenodd" d="M15.9948 7.78715L12.2132 4.00552L13.6313 2.5874C14.4145 1.8042 15.6843 1.8042 16.4675 2.5874L17.4129 3.53281C18.1961 4.31601 18.1961 5.58584 17.4129 6.36904L15.9948 7.78715ZM16.4675 5.42363C16.7286 5.16256 16.7286 4.73929 16.4675 4.47822L15.5221 3.53281C15.261 3.27174 14.8378 3.27174 14.5767 3.53281L14.104 4.00552L15.9948 5.89634L16.4675 5.42363Z" fill="#CB11AB"/>
</g>
</g>
</g>
</g>
</g>
</g>
</g>
</g>
</g>
</g>
<defs>
<filter id="filter0_dd_7_43" x="-269" y="-163" width="323" height="624" filterUnits="userSpaceOnUse" color-interpolation-filters="sRGB">
<feFlood flood-opacity="0" result="BackgroundImageFix"/>
<feColorMatrix in="SourceAlpha" type="matrix" values="0 0 0 0 0 0 0 0 0 0 0 0 0 0 0 0 0 0 127 0" result="hardAlpha"/>
<feOffset/>
<feGaussianBlur stdDeviation="0.5"/>
<feComposite in2="hardAlpha" operator="out"/>
<feColorMatrix type="matrix" values="0 0 0 0 0 0 0 0 0 0 0 0 0 0 0 0 0 0 0.3 0"/>
<feBlend mode="normal" in2="BackgroundImageFix" result="effect1_dropShadow_7_43"/>
<feColorMatrix in="SourceAlpha" type="matrix" values="0 0 0 0 0 0 0 0 0 0 0 0 0 0 0 0 0 0 127 0" result="hardAlpha"/>
<feOffset dy="2"/>
<feGaussianBlur stdDeviation="5"/>
<feComposite in2="hardAlpha" operator="out"/>
<feColorMatrix type="matrix" values="0 0 0 0 0 0 0 0 0 0 0 0 0 0 0 0 0 0 0.15 0"/>
<feBlend mode="normal" in2="effect1_dropShadow_7_43" result="effect2_dropShadow_7_43"/>
<feBlend mode="normal" in="SourceGraphic" in2="effect2_dropShadow_7_43" result="shape"/>
</filter>
</defs>
</svg>
